<svg xmlns="http://www.w3.org/2000/svg" viewBox="0 0 1600 1000" role="img" aria-labelledby="title desc">
  <title id="title">Misty forest</title>
  <desc id="desc">Layered green hills and soft mist at sunrise.</desc>
  <defs>
    <linearGradient id="sky" x1="0" x2="0" y1="0" y2="1">
      <stop offset="0" stop-color="#f6d7a7" />
      <stop offset="0.45" stop-color="#9cbfa7" />
      <stop offset="1" stop-color="#214033" />
    </linearGradient>
    <linearGradient id="mist" x1="0" x2="1" y1="0" y2="0">
      <stop offset="0" stop-color="#ffffff" stop-opacity="0" />
      <stop offset="0.5" stop-color="#ffffff" stop-opacity="0.35" />
      <stop offset="1" stop-color="#ffffff" stop-opacity="0" />
    </linearGradient>
  </defs>
  <rect width="1600" height="1000" fill="url(#sky)" />
  <circle cx="1240" cy="210" r="100" fill="#ffe3ad" opacity="0.72" />
  <path d="M0 620 C240 500 370 560 560 470 C760 380 940 520 1160 430 C1340 360 1470 420 1600 330 L1600 1000 L0 1000 Z" fill="#355f48" opacity="0.82" />
  <path d="M0 730 C260 600 460 690 700 570 C960 440 1180 650 1600 500 L1600 1000 L0 1000 Z" fill="#284b3a" opacity="0.92" />
  <path d="M0 835 C280 700 520 800 780 690 C1040 580 1280 760 1600 620 L1600 1000 L0 1000 Z" fill="#163528" />
  <rect y="410" width="1600" height="180" fill="url(#mist)" opacity="0.75" />
</svg>
